<svg preserveAspectRatio="none" overflow="visible" style="display: block;" width="2048" height="2048" viewBox="0 0 2048 2048" fill="none" xmlns="http://www.w3.org/2000/svg">
<g id="mail">
<path id="Vector" d="M374.29 298L1673.8 298.071L1673.89 352.171L1727.96 352.093L1727.86 406.864L1781.99 406.853L1781.95 460.276L1835.97 460.288L1835.94 514.436L1890.13 514.413L1890.11 1651.08L1836.02 1651.1L1836.03 1705.97L211.929 1706L211.943 1651.15L157.967 1651.1L157.894 514.436L212.03 514.374L211.945 460.198L266.132 460.358L266.008 406.788L320.114 406.912L319.973 352.098L374.011 352.151L374.29 298Z" fill="black"/>
<path id="Vector_2" d="M374.289 298L1673.8 298.071L1673.89 352.171L1673.69 439.618L374.311 439.552C374.32 421.524 373.741 399.981 374.361 382.26L374.227 353.892L374.009 352.151L374.289 298Z" fill="#FEFFFE"/>
<path id="Vector_3" d="M374.289 298L1673.8 298.071L1673.89 352.171L374.009 352.151L374.289 298Z" fill="black"/>
<path id="Vector_4" d="M1673.89 352.171L1673.69 439.618L374.311 439.552C374.32 421.524 373.741 399.982 374.361 382.26C377.321 386.695 376.204 400.227 376.152 406.428C419.825 408.496 473.782 406.988 518.373 406.983L784.433 406.95L1620.08 407.074C1620.23 389.367 1620.07 371.661 1619.62 353.962L374.227 353.892L374.009 352.151L1673.89 352.171Z" fill="#F0EFEE"/>
<path id="Vector_5" d="M266.268 514.277L1781.94 514.356C1781.95 532.057 1781.6 551.04 1781.97 568.635L1835.98 568.756L1836 1596.92L1782.06 1596.97C1781.25 1612.93 1781.84 1634.75 1781.83 1651.13L266.359 1651.16L266.495 1596.97H320.043L319.976 1542.21L265.827 1541.99L265.803 1596.83L211.994 1596.94L212.041 568.699L266.189 568.711L266.268 514.277Z" fill="#F0EFEE"/>
<path id="Vector_6" d="M266.268 514.277L1781.94 514.356C1781.95 532.057 1781.6 551.04 1781.97 568.635L1781.84 622.697L1727.83 622.722L1673.96 622.768L1673.83 676.906L1619.07 676.859L1619.04 730.912L1564.94 730.884L1564.96 784.958L1565.04 839.26L1511.22 839.175V893.454L1456.98 893.389L1402.85 893.543L1402.93 947.713L1348.94 947.732L1348.92 839.426C1334.93 837.94 1310.84 839.109 1295.02 838.395L1295 785.22C1281.82 784.119 1254.93 784.797 1240.86 784.787C1240.84 767.255 1241.21 748.312 1240.07 730.93L1134.77 730.806L1132.18 730.288C1120.38 728.751 1034.16 728.922 1022.28 730.589C988.233 731.815 950.255 731.012 915.902 730.993L807.912 730.939L807.769 784.965L807.91 839.083C807.912 874.462 808.517 912.293 807.564 947.458C790.355 948.097 770.432 947.735 753.017 947.816L699.089 947.699L644.994 947.703C644.992 1037.09 643.893 1128.7 645.027 1217.87L590.999 1217.86L590.972 1271.86L590.965 1326.58L537.053 1326.63L482.333 1326.68L482.358 1380.41L428.774 1380.52L428.816 1434.49L429.018 1488.77L374.752 1488.67L374.993 1542.75L321.473 1542.74L319.976 1542.21L265.827 1541.99L265.803 1596.83L211.994 1596.94L212.041 568.699L266.189 568.711L266.268 514.277Z" fill="#F0EFEE"/>
<path id="Vector_7" d="M266.189 568.711L320.23 568.671L320.184 622.742L320.146 676.887L374.255 676.877L428.709 676.871L428.796 730.928L428.836 784.986L483.005 785.055L537 784.972L537.013 839.096L536.911 893.316L590.943 893.489L590.968 947.714L644.994 947.703C644.992 1037.09 643.893 1128.7 645.027 1217.87L590.999 1217.86L590.972 1271.86L590.965 1326.58L537.053 1326.63L482.333 1326.68L482.358 1380.41L428.774 1380.52L428.816 1434.49L429.018 1488.77L374.752 1488.67L374.993 1542.75L321.473 1542.74L319.976 1542.21L265.827 1541.99L265.803 1596.83L211.994 1596.94L212.041 568.698L266.189 568.711Z" fill="#F0EFEE"/>
<path id="Vector_8" d="M374.113 1434.57L428.817 1434.49L429.019 1488.77L374.753 1488.67L374.994 1542.75L321.474 1542.74L319.977 1542.21L320.044 1488.5L374.153 1488.56L374.113 1434.57Z" fill="black"/>
<path id="Vector_9" d="M590.973 1271.86L590.967 1326.59L537.054 1326.63L537.009 1271.81L590.973 1271.86Z" fill="black"/>
<path id="Vector_10" d="M374.255 676.877L428.708 676.871L428.795 730.928L374.274 730.96L374.255 676.877Z" fill="black"/>
<path id="Vector_11" d="M483.005 785.055L537 784.973L537.013 839.096C520.052 839.727 500.078 839.329 482.919 839.358L483.005 785.055Z" fill="black"/>
<path id="Vector_12" d="M266.19 568.711L320.231 568.671L320.185 622.742L266.026 622.771L266.19 568.711Z" fill="black"/>
<path id="Vector_13" d="M266.267 731.084C284.257 731.158 302.247 731.117 320.237 730.957L320.635 1420.96L320.8 1434.6L266.169 1434.63L266.267 731.084Z" fill="#FEFFFE"/>
<path id="Vector_14" d="M915.908 676.952L1132.15 676.9L1132.18 730.287C1120.38 728.751 1034.16 728.922 1022.28 730.589C988.233 731.815 950.255 731.012 915.902 730.993L915.908 676.952Z" fill="black"/>
<path id="Vector_15" d="M752.942 839.022L807.911 839.084C807.912 874.463 808.518 912.293 807.565 947.458C790.356 948.097 770.432 947.736 753.018 947.816L752.942 839.022Z" fill="#FEFFFE"/>
<path id="Vector_16" d="M1564.96 784.958L1565.04 839.26L1511.22 839.176V893.455L1456.98 893.389L1456.85 838.977L1510.96 838.936L1510.81 784.8L1564.96 784.958Z" fill="black"/>
<path id="Vector_17" d="M752.942 839.021L753.018 947.816L699.089 947.698L699.049 839.017L752.942 839.021Z" fill="black"/>
<path id="Vector_18" d="M807.77 784.964L807.911 839.083L752.942 839.021L753.002 784.909L807.77 784.964Z" fill="black"/>
<path id="Vector_19" d="M537.014 839.096L590.918 838.922L590.945 893.489L536.913 893.317L537.014 839.096Z" fill="black"/>
<path id="Vector_20" d="M428.796 730.928L483.002 730.836L483.005 785.055L428.835 784.987L428.796 730.928Z" fill="black"/>
<path id="Vector_21" d="M590.943 893.489L645.074 893.48L644.994 947.703L590.968 947.714L590.943 893.489Z" fill="black"/>
<path id="Vector_22" d="M320.184 622.743L374.316 622.734L374.255 676.878L320.146 676.887L320.184 622.743Z" fill="black"/>
<path id="Vector_23" d="M1727.78 568.63L1781.97 568.635L1781.84 622.697L1727.83 622.722L1727.78 568.63Z" fill="black"/>
<path id="Vector_24" d="M428.829 568.932C547.582 566.845 673.042 568.945 792.341 568.872L1619.91 568.827C1618.63 581.57 1619.13 608.908 1619.07 622.837L428.928 622.989C427.934 609.252 428.751 583.455 428.829 568.932Z" fill="#FEFFFE"/>
<path id="Vector_25" d="M1132.18 730.287L1134.76 730.806L1240.07 730.93C1241.21 748.312 1240.84 767.255 1240.86 784.787C1254.93 784.796 1281.82 784.119 1295 785.22L1295.02 838.395C1310.84 839.109 1334.93 837.94 1348.92 839.426L1348.93 947.732L1402.93 947.713L1402.96 1217.99L1348.82 1218.03V1271.87L1294.94 1271.94V1326.66L1240.73 1326.65L1240.72 1380.82L1132.15 1380.73L1132.1 1434.56L916.05 1434.52L916.087 1380.61C882.276 1381.76 841.899 1380.74 807.597 1380.73L807.882 1348.8C807.37 1346.11 807.494 1330.56 807.465 1326.85C789.485 1326.87 770.78 1327.17 752.883 1326.24C752.937 1308.54 752.885 1290.82 752.726 1273.13L751.491 1272.09L699.107 1271.92L699.144 1217.94L645.026 1217.87C643.893 1128.7 644.992 1037.09 644.993 947.703L699.088 947.698L753.017 947.816C770.431 947.735 790.354 948.097 807.564 947.457C808.517 912.293 807.911 874.462 807.909 839.083L807.768 784.965L807.911 730.939L915.901 730.993C950.254 731.012 988.232 731.815 1022.28 730.589C1034.16 728.922 1120.38 728.751 1132.18 730.287Z" fill="#C90001"/>
<path id="Vector_26" d="M1132.18 730.287L1134.76 730.806L1240.07 730.93C1241.21 748.312 1240.84 767.255 1240.86 784.787C1254.93 784.796 1281.82 784.119 1295 785.22L1295.02 838.395C1310.84 839.109 1334.93 837.94 1348.92 839.426L1348.93 947.732L1402.93 947.713L1402.96 1217.99L1348.82 1218.03V1271.87L1294.94 1271.94V1326.66L1240.73 1326.65L1240.72 1380.82L1132.15 1380.73L1132.1 1434.56L916.05 1434.52L916.087 1380.61C882.276 1381.76 841.899 1380.74 807.597 1380.73L807.882 1348.8C807.37 1346.11 807.494 1330.56 807.465 1326.85C789.485 1326.87 770.78 1327.17 752.883 1326.24C752.937 1308.54 752.885 1290.82 752.726 1273.13L751.491 1272.09L699.107 1271.92L699.144 1217.94L645.026 1217.87C643.893 1128.7 644.992 1037.09 644.993 947.703L699.088 947.698L753.017 947.816C770.431 947.735 790.354 948.097 807.564 947.457C809.408 1018.41 807.457 1092.69 808.003 1163.97C825.853 1164.26 843.705 1164.4 861.557 1164.41L861.889 1218.03L915.884 1218.11L916.128 1272.3C928.961 1274.68 968.842 1273.54 984.104 1273.66C1032.91 1274.06 1082.21 1273.05 1131.05 1273.63C1131.01 1283.83 1130.28 1314.34 1131.97 1323C1133.97 1316.83 1132.74 1280.94 1132.58 1272.27C1145.98 1272.47 1173.43 1273.35 1185.8 1271.68C1188.97 1264.83 1187.35 1228.04 1187.21 1218.37C1199.37 1218.59 1221.23 1219.67 1232.15 1217.32C1234.93 1218.11 1234.94 1217.76 1237.99 1217.62C1243.55 1211.63 1241.21 1175.74 1241.02 1164.83C1255.1 1164.73 1279.51 1165.65 1292.38 1163.73C1298.19 1156.47 1293.48 868.507 1293.51 840.422C1276.13 840.839 1257.07 840.346 1239.54 840.201C1239.02 822.565 1239.29 804.152 1239.29 786.454L1131.47 786.143C1131.58 768.48 1131.39 750.818 1130.88 733.161C1101.65 731.084 1053.98 731.981 1024.01 732.578L1022.28 730.589C1034.16 728.922 1120.38 728.751 1132.18 730.287Z" fill="#6F0000"/>
<path id="Vector_27" d="M753.018 947.815C770.432 947.735 790.355 948.096 807.565 947.457C809.409 1018.4 807.459 1092.69 808.004 1163.97C825.855 1164.26 843.707 1164.4 861.559 1164.41L861.89 1218.03L915.885 1218.11L916.129 1272.3C928.962 1274.68 968.843 1273.54 984.105 1273.66C1032.91 1274.06 1082.21 1273.05 1131.06 1273.63C1131.01 1283.83 1130.28 1314.34 1131.98 1323L1131.01 1325.63C1122.81 1323.97 1044.13 1324.35 1032.24 1324.62C975.233 1325.93 918.668 1323 862.142 1323.22L861.917 1271.92C829.109 1271.97 796.437 1269.76 763.612 1269.06C758.186 1268.95 757.818 1267.95 754.707 1264.12C752.861 1234.02 754.51 1194.74 753.944 1163.37L700.314 1163.21C700.493 1137.11 698.609 1078.4 701.257 1055.85L698.757 1054.74C700.124 1021.67 699.135 981.364 699.089 947.698L753.018 947.815Z" fill="#FC0100"/>
<path id="Vector_28" d="M699.089 947.7L753.018 947.817L753.101 1055.75L701.257 1055.85L698.757 1054.74C700.124 1021.67 699.135 981.366 699.089 947.7Z" fill="#FEFFFE"/>
<path id="Vector_29" d="M1296.22 839.741C1313.78 839.857 1331.4 840.173 1348.92 839.426L1348.94 947.732L1402.93 947.713L1402.97 1217.98L1348.82 1218.03V1271.87L1294.94 1271.94V1326.66L1240.73 1326.65L1240.72 1380.82L1132.15 1380.73L1132.1 1434.56L916.051 1434.52L916.088 1380.61C987.107 1379.3 1060.71 1380.79 1132.13 1380.36L1132.21 1326.62C1163.83 1328.07 1207.95 1326.6 1240.18 1326.11L1240.57 1272.17C1257.37 1271.43 1277.21 1271.71 1294.24 1271.54C1296 1239.19 1294.87 1197.54 1294.84 1164.43C1309.34 1163.48 1333.62 1164.15 1348.76 1164.15V947.621C1331.84 948.038 1313.95 947.854 1296.92 947.965C1295.49 913.25 1296.25 874.736 1296.22 839.741Z" fill="black"/>
<path id="Vector_30" d="M644.993 947.704L699.088 947.7C699.134 981.366 700.122 1021.67 698.755 1054.74C697.117 1064.57 697.012 1151.46 697.935 1165.42L751.405 1165.73L751.491 1272.1L699.107 1271.92L699.144 1217.94L645.026 1217.88C643.893 1128.7 644.992 1037.09 644.993 947.704Z" fill="black"/>
<path id="Vector_31" d="M808.466 1327.5C834.372 1327.71 892.744 1329.93 916.098 1327.92L916.088 1380.61C882.278 1381.76 841.9 1380.74 807.598 1380.73L807.884 1348.8C808.485 1340.97 808.57 1335.37 808.466 1327.5Z" fill="black"/>
<path id="Vector_32" d="M1134.77 730.806L1240.07 730.93C1238.99 743.905 1239.7 770.018 1239.72 783.866L1133.66 783.852C1133.58 775.415 1132.48 736.864 1134.77 730.806Z" fill="black"/>
<path id="Vector_33" d="M754.707 1264.12C757.818 1267.96 758.186 1268.96 763.611 1269.07C796.437 1269.76 829.109 1271.97 861.917 1271.92L862.142 1323.22C918.668 1323 975.232 1325.94 1032.24 1324.62C1044.13 1324.35 1122.81 1323.97 1131.01 1325.63C1123.01 1327.89 1068.32 1327.08 1056.77 1327.08C974.398 1327.24 892.019 1326.51 809.658 1324.86C809.715 1307.7 808.941 1288.73 808.707 1271.33C797.698 1271.43 760.417 1273.49 754.234 1268.31L754.707 1264.12Z" fill="#C90001"/>
<path id="Vector_34" d="M752.727 1273.13C767.756 1273.25 792.399 1272.73 806.659 1273.79C806.006 1292.17 806.289 1307.84 806.787 1326.19C789.019 1325.92 770.574 1325.3 752.884 1326.24C752.938 1308.54 752.886 1290.82 752.727 1273.13Z" fill="black"/>
<path id="Vector_35" d="M1241.72 785.525C1259.6 785.636 1277.11 785.817 1295 785.221L1295.02 838.396C1284.23 836.905 1254.13 837.528 1242.18 837.511L1241.72 785.525Z" fill="black"/>
<path id="Vector_36" d="M807.911 839.083C816.918 839.048 837.983 838.431 846.043 839.437C859.029 840.451 903.933 842.627 915.874 840.055C983.471 841.205 1064.12 841.338 1131.5 839.93C1131.52 854.971 1130.8 879.906 1131.8 894.158C1060.29 893.238 987.678 893.885 916.085 893.926L916.015 947.688L862.012 947.738C861.98 1018.67 860.826 1093.15 862.09 1163.8L916.141 1164L916.077 1217.68C983.961 1217.97 1064.66 1219.89 1131.78 1217.51C1131.47 1235.41 1131.36 1253.32 1131.42 1271.22L987.9 1271.08C973.181 1271.06 928.283 1270.22 916.129 1272.3L915.885 1218.11L861.89 1218.03L861.559 1164.41C843.707 1164.4 825.855 1164.26 808.004 1163.97C807.459 1092.69 809.409 1018.4 807.565 947.457C808.518 912.292 807.912 874.462 807.911 839.083Z" fill="#6F0000"/>
<path id="Vector_37" d="M807.911 839.083C816.918 839.048 837.983 838.431 846.043 839.437C859.029 840.451 903.933 842.627 915.874 840.055L915.922 893.692L861.871 893.742L861.958 947.706C844.22 947.642 825.192 947.915 807.565 947.457C808.518 912.292 807.912 874.462 807.911 839.083Z" fill="#FC0100"/>
<path id="Vector_38" d="M1024.01 732.578C1053.98 731.982 1101.65 731.084 1130.88 733.162C1131.39 750.818 1131.58 768.48 1131.47 786.143L1239.29 786.454C1239.29 804.152 1239.02 822.566 1239.54 840.202C1257.07 840.346 1276.13 840.839 1293.51 840.422C1293.48 868.508 1298.19 1156.47 1292.38 1163.73C1279.49 1162.13 1255.47 1162.85 1241.73 1162.86C1240.61 1091.64 1241.75 1017.73 1241.62 946.205L1188 945.867L1188.02 892.017L1133.94 891.912C1133.7 873.993 1133.85 855.727 1133.81 837.777L919.296 837.776C919.131 787.832 907.289 786.706 959.12 787.897C970.257 788.153 1017.67 789.934 1023.76 786.58C1024.14 768.9 1023.93 750.332 1024.01 732.578Z" fill="#FC0100"/>
<path id="Vector_39" d="M1186.39 948.305L1239.2 948.362L1239.32 1163.35C1223.31 1163.35 1201.55 1162.81 1185.94 1163.67C1188.23 1092.73 1185.17 1019.37 1186.39 948.305Z" fill="#6F0000"/>
<path id="Vector_40" d="M915.903 730.993L915.963 784.958L807.77 784.965L807.913 730.939L915.903 730.993Z" fill="black"/>
<path id="Vector_41" d="M915.902 730.993C950.255 731.012 988.233 731.815 1022.28 730.589L1024.01 732.577C1023.93 750.331 1024.14 768.9 1023.76 786.579C1014.64 783.821 931.849 784.93 915.962 784.958L915.902 730.993Z" fill="#FEFFFE"/>
<path id="Vector_42" d="M807.77 784.965L915.963 784.958L915.852 838.805C893.608 838.911 868.02 838.435 846.043 839.437C837.984 838.432 816.919 839.049 807.911 839.084L807.77 784.965Z" fill="#FEFFFE"/>
<path id="Vector_43" d="M1185.94 1163.67C1185.4 1181.53 1185.29 1199.4 1185.64 1217.27C1170.51 1217.25 1146.18 1216.56 1131.79 1217.51C1132.56 1201.7 1132.02 1180.42 1132.02 1164.16C1149.99 1164.14 1167.97 1163.99 1185.94 1163.67Z" fill="#6F0000"/>
<path id="Vector_44" d="M1131.8 894.158C1149.66 894.599 1167.36 895.241 1185.23 894.588L1185.58 947.687L1132.23 947.609C1132.13 930.814 1132.51 910.683 1131.8 894.158Z" fill="#6F0000"/>
<path id="Vector_45" d="M1134.24 1219.59L1184.96 1219.63C1184.93 1229.17 1184.28 1263.99 1185.8 1271.68C1170.97 1269.94 1149.31 1270.64 1133.89 1270.7C1133.74 1253.78 1133.29 1236.44 1134.24 1219.59Z" fill="#FC0100"/>
<path id="Vector_46" d="M1194.08 1165.73L1238.88 1165.76C1239.12 1179.21 1243.49 1210.18 1232.15 1217.32C1217.1 1216.65 1203.04 1216.72 1188 1216.8C1187.83 1207.3 1185.94 1172.53 1190.08 1166.27L1194.08 1165.73Z" fill="#FC0100"/>
<path id="Vector_47" d="M1781.97 568.635L1835.98 568.755L1836 1596.92L1782.06 1596.97H1728L1728.13 1542.5L1728.18 1540.8C1727.5 1524.78 1727.96 1504.85 1727.91 1488.55L1673.81 1488.39L1673.85 1434.6L1619.36 1434.61L1564.98 1434.52L1564.99 1380.82L1510.74 1380.8L1510.88 1326.73L1456.87 1326.71L1456.92 1271.87H1402.89L1402.97 1217.98L1402.93 947.712L1402.86 893.543L1456.98 893.389L1511.22 893.454V839.175L1565.04 839.259L1564.96 784.958L1564.95 730.883L1619.04 730.912L1619.07 676.858L1673.83 676.906L1673.96 622.768L1727.83 622.722L1781.84 622.696L1781.97 568.635Z" fill="#F0EFEE"/>
<path id="Vector_48" d="M1781.97 568.635L1835.98 568.755L1836 1596.92L1782.06 1596.97H1728L1728.13 1542.5L1728.18 1540.8L1781.81 1540.67L1781.84 622.696L1781.97 568.635Z" fill="#BEBDBE"/>
<path id="Vector_49" d="M1728.13 1542.5L1782.24 1542.42C1782.22 1559.45 1782.74 1580.24 1782.06 1596.97H1728L1728.13 1542.5Z" fill="black"/>
<path id="Vector_50" d="M1510.88 1326.73L1565.23 1326.62L1565.17 1380.38L1619.34 1380.46L1619.36 1434.61L1564.98 1434.52L1564.99 1380.82L1510.74 1380.8L1510.88 1326.73Z" fill="black"/>
<path id="Vector_51" d="M1456.92 1271.87L1510.99 1271.82L1510.88 1326.73L1456.87 1326.71L1456.92 1271.87Z" fill="black"/>
<path id="Vector_52" d="M1619.07 676.859L1673.83 676.906L1673.91 730.943L1619.04 730.912L1619.07 676.859Z" fill="black"/>
<path id="Vector_53" d="M1402.86 893.543L1456.98 893.389L1457.06 947.732L1402.94 947.713L1402.86 893.543Z" fill="black"/>
<path id="Vector_54" d="M1619.04 730.912L1619.1 784.946L1564.96 784.958L1564.95 730.884L1619.04 730.912Z" fill="black"/>
<path id="Vector_55" d="M1673.96 622.768L1727.83 622.722L1727.84 676.868L1673.83 676.906L1673.96 622.768Z" fill="black"/>
<path id="Vector_56" d="M1402.97 1217.99L1456.95 1217.89L1456.92 1271.87H1402.89L1402.97 1217.99Z" fill="black"/>
<path id="Vector_57" d="M319.976 1542.21L321.473 1542.74L321.847 1596.59L1074.55 1596.75C1290.69 1596.69 1510.33 1598.8 1726.19 1596.5C1726.29 1586.38 1727.14 1550.81 1726.08 1542.75L1728.13 1542.5L1728 1596.97H1782.06C1781.25 1612.93 1781.84 1634.75 1781.83 1651.13L266.358 1651.16L266.494 1596.97H320.042L319.976 1542.21Z" fill="#BEBDBE"/>
<path id="Vector_58" d="M1619.36 1434.61L1673.85 1434.6L1673.81 1488.39L1727.91 1488.55C1727.96 1504.85 1727.5 1524.78 1728.18 1540.8L1728.13 1542.5L1726.08 1542.75L1673.32 1542.7L1673.16 1488.79L1619.15 1488.8L1619.36 1434.61Z" fill="black"/>
<path id="Vector_59" d="M482.333 1326.68L537.053 1326.63L537.097 1380.74L482.855 1380.73L482.893 1434.58L428.817 1434.49L428.774 1380.52L482.359 1380.41L482.333 1326.68Z" fill="black"/>
<path id="Vector_60" d="M645.028 1217.87L645.077 1271.87L590.972 1271.86L590.999 1217.86L645.028 1217.87Z" fill="black"/>
</g>
</svg>
